<svg xmlns="http://www.w3.org/2000/svg" width="95.701" height="105.418" viewBox="0 0 95.701 105.418"><g fill="#fff" stroke-miterlimit="10"><path d="M93.427 79.072c1.717.42 1.012 4.917-.192 6.122l-18.066 18.065c-.567.59-1.34.91-2.158.91a3.1 3.1 0 0 1-2.158-.91l-17.924-18.21c-1.205-1.204-1.189-4.232.093-5.625 1.56-1.691 14.98-.03 14.98-.03v-36.36c0-.495 1.56-3.066 5.008-3.066 3.45 0 5.01 2.252 5.007 3.067v36.18s13.69-.565 15.408-.144z" stroke="#fff" stroke-width="2.5" stroke-linecap="round"/><path d="M0 16.269C0 7.284 7.283 0 16.27 0h56.944a4.88 4.88 0 0 1 4.88 4.881v21.023l-9.76-.018V9.762H16.27a6.51 6.51 0 0 0-6.508 6.508v43.655a16.2 16.2 0 0 1 6.507-1.354h36.482l-.014 9.762H16.269a6.508 6.508 0 0 0-4.647 11.064 4.883 4.883 0 1 1-6.975 6.834A16.24 16.24 0 0 1 0 74.841z"/><path d="M19.524 79.723c0-.9.727-1.628 1.626-1.628 0 0 19.41.04 19.409.058a9.96 9.96 0 0 0-1.044 4.454c0 4.116 2.826 8.33 6.04 10.543v7.722a1.627 1.627 0 0 1-2.604 1.302L33.515 95.1a1.62 1.62 0 0 0-1.953 0l-9.436 7.074a1.627 1.627 0 0 1-2.603-1.3z"/></g></svg>